<svg xmlns="http://www.w3.org/2000/svg" xmlns:xlink="http://www.w3.org/1999/xlink" viewBox="0 0 119.89 146.27"><defs><style>.a{fill:none;}.b{clip-path:url(#a);}.c{fill:#f5a200;}.d,.e{fill:#fff;}.e{fill-rule:evenodd;}</style><clipPath id="a"><rect class="a" y="-1.02" width="120" height="150.99"/></clipPath></defs><title>pegi-12</title><g class="b"><rect class="c" width="119.9" height="119.9"/></g><g class="b"><path class="d" d="M42.21,102.87H23.5v-65H11.27v-11c8.4.12,13.91-3.36,16.91-11.51h14Z"/></g><g class="b"><path class="d" d="M106,85.12v17.75H60.19V84.28C81.05,55.87,87.77,51.07,87.77,40.16c0-4.44-1.69-7.07-4.92-7.07-4.44,0-5.4,3.47-5.4,7.43v5.15H60V39.92c0-13.55,6.59-24.58,22.9-24.58,15.59,0,24.1,9.83,24.1,25.54,0,18.7-15.83,30.93-26.62,44.24Z"/></g><g class="b"><path d="M0,146.27H119.89V0H0M117.5,117.5H2.4V2.4H117.5Z"/></g><g class="b"><path d="M107.37,4.8v.89h-1.89v6h-1.12v-6h-1.9V4.8Zm7.73,6.89H114V6.26h0L112,11.69h-.91l-1.81-5.43h0v5.43h-1.11V4.8h1.77l1.72,5.13h0l1.67-5.13h1.74v6.89Z"/></g><g class="b"><polygon class="d" points="7.61 137.28 9.65 137.28 11.52 128.19 11.56 128.19 13.51 137.28 15.42 137.28 18.06 126.15 16.23 126.15 14.51 135.25 14.46 135.25 12.62 126.15 10.56 126.15 8.67 135.25 8.63 135.25 6.84 126.15 5.02 126.15 7.61 137.28"/></g><g class="b"><polygon class="d" points="21.07 137.28 23.11 137.28 24.98 128.19 25.02 128.19 26.98 137.28 28.88 137.28 31.52 126.15 29.69 126.15 27.97 135.25 27.93 135.25 26.08 126.15 24.02 126.15 22.13 135.25 22.09 135.25 20.31 126.15 18.48 126.15 21.07 137.28"/></g><g class="b"><polygon class="d" points="34.53 137.28 36.57 137.28 38.44 128.19 38.48 128.19 40.43 137.28 42.34 137.28 44.98 126.15 43.16 126.15 41.43 135.25 41.39 135.25 39.54 126.15 37.48 126.15 35.59 135.25 35.55 135.25 33.77 126.15 31.94 126.15 34.53 137.28"/></g><g class="b"><rect class="d" x="45.96" y="135.09" width="1.91" height="2.2"/></g><g class="b"><path class="e" d="M52.19,131.72c0-2.54.31-4.36,2.25-4.36,1.62,0,2,1.71,2,4.15,0,2.87-.41,4.57-2,4.57-1.87,0-2.25-2.2-2.25-4.36m-1.64,9.22h1.74V136h.05a2.53,2.53,0,0,0,2.32,1.56c2.89,0,3.64-3.54,3.64-6.07,0-3.3-1-5.65-3.64-5.65a2.52,2.52,0,0,0-2.4,1.67h0v-1.38H50.55v14.79Z"/></g><g class="b"><path class="e" d="M61.69,130.56v-.42c0-.66.2-2.91,2-2.91,1.54,0,1.93,1.48,1.93,2.72v.61Zm5.79,1.37v-.71c0-2.39-.31-5.36-3.72-5.36s-4,3.22-4,6c0,3.82,1.15,5.71,3.87,5.71a3.77,3.77,0,0,0,3.74-4H65.65c0,.83-.23,2.58-1.89,2.58-2.13,0-2.13-2.58-2.13-4.28Z"/></g><g class="b"><path class="e" d="M72.84,127.36c1.87,0,2.24,2.2,2.24,4.36s-.37,4.07-2.27,4.07c-1.74,0-2-2.26-2-4.07,0-2.66.42-4.36,2-4.36m3.88-1.21H75.06v1.42h0a2.51,2.51,0,0,0-2.41-1.71c-2.83,0-3.63,2.85-3.63,5.86,0,1.48.2,5.56,3.44,5.56a2.66,2.66,0,0,0,2.52-1.49h0v1.46c0,.76.08,2.48-2.17,2.48-.91,0-1.7-.39-1.78-1.4H69.29c.28,2.78,3,2.78,3.65,2.78,2.24,0,3.78-1.21,3.78-4.53V126.15Z"/></g><g class="b"><path class="e" d="M79.12,137.28h1.74V126.15H79.12Zm0-12.83h1.74v-2H79.12Z"/></g><g class="b"><rect class="d" x="83.63" y="135.09" width="1.91" height="2.2"/></g><g class="b"><path class="e" d="M88.33,137.28h1.75V126.15H88.33Zm0-12.83h1.75v-2H88.33Z"/></g><g class="b"><path class="d" d="M92.46,137.28H94.2V129.6a2.15,2.15,0,0,1,2.21-2.24c1.58,0,1.64,1.39,1.64,2.24v7.68h1.74v-7.89c0-1.3,0-3.53-2.93-3.53a3,3,0,0,0-2.69,1.61h0v-1.32H92.46v11.13Z"/></g><g class="b"><path class="d" d="M102.6,137.28h1.75v-9.75h1.9v-1.38h-1.9v-1.3c0-.77.37-1.06,1.12-1.06h.81v-1.5H105c-1.68,0-2.41.88-2.41,2.56v1.3H101v1.38h1.62Z"/></g><g class="b"><path class="e" d="M106.92,131.72c0,3.13.79,5.86,4,5.86s4-2.73,4-5.86-.79-5.86-4-5.86-4,2.72-4,5.86m4,4.49c-1.78,0-2.13-2.09-2.13-4.49s.37-4.49,2.13-4.49,2.23,2.08,2.23,4.49-.38,4.49-2.23,4.49"/></g></svg>