<svg xmlns="http://www.w3.org/2000/svg" width="1099" height="427.027" xmlns:v="https://vecta.io/nano"><path d="M123.333 31.014l-59 181.666L133 221.681l-7.667-190.667 23.334 193.507L196 237.347 126.333 22.014 0 211.014h48.667z"/><path d="M148.333 237.014L73 415.681l59-180.334-69.667-8.666 8.334 189L47 224.521 0 211.014l70.333 216.013L196 237.347zM438 61.014l-47.5 61s-27-24-60-28-60 18.5-55.5 39.5 19 31 78 47 106.5 52.5 95 135-92.5 107.5-145 105.5-85-9-149-61.5l48-66.5s48 47.5 96.5 46.5 58-29 56-40-1.5-24-47.5-40.5-118.5-26.5-127.5-110.5 72-124 123.5-129 96.5 14 135 41.5zm102 354h-93v-49.5s20-31 18-69.5c-2.568-49.436-18-70-18-70v-136h93v325zm4.5 0l61-361.5h75l33.5 168.5 30-132h76.5l60.5 325h-91.5l-15-114-21.5 114h-81l-22-114.5-17.5 114.5z"/><path d="M1079 124.014l-46.5 59.5s-26-28-54.5-25.5-32.052 18.729-30.5 25.5c3.626 15.824 32.466 23.127 58.287 31.068 13.342 4.104 25.878 9.844 33.713 13.932 23 12 49.5 37 45.5 92s-45.5 97.5-123.5 97.5-102.5-38-107-47.5l46-57s24 29.5 58.5 26.5 37.5-17.5 37-27.5-11-17.5-46.5-28.5-92-24.5-92.5-100.5 80-97.517 112.952-97.508c22.006.005 58.048-3.492 109.048 38.008zM483.25 2.264H433.5l-4.75 15h19.5v57.25h17.5v-57.25h17.5zm33.5 16.45c-8.63 0-13.218 4.223-15.5 7.562V0h-14.5v74.514h14.5V38.521c1.852-2.969 5-6.507 9.5-6.507 4.75 0 5.5 6 5.5 8.5v34h15.5v-39s1.25-16.8-15-16.8zm40.5 38.55l34-23.5s-7-15.1-27.5-15.05-37.25 24.05-21.5 46.3 46.5 4.75 47.5 0l-10.5-11.5s-10 13-22 3.75zm14.25-24.25l-18 12c-.25-19.75 18-12 18-12zm494.316 57.642h5.247v13.108h2.605V90.656h5.247v-2.181h-13.099zm28.997-2.181l-5.454 8.876-5.451-8.876h-2.439v15.289h2.541V93.723l4.443 6.911h1.813l4.442-7.13v10.26h2.542V88.475z"/></svg>