<svg xmlns="http://www.w3.org/2000/svg" width="118" height="60" viewBox="0 0 118 60">
  <path fill="#FFF" fill-rule="evenodd" d="M19.6498253,33.4704194 L11.3901487,33.4704194 L13.2137311,30.537871 L18.7942842,30.537871 L20.6178667,27.6039677 L8.91716334,27.6039677 L7.09560184,30.537871 L9.77203078,30.537871 L6.12553949,36.4036452 L21.2665959,36.4036452 L26.9428079,27.2720323 L28.9711813,30.537871 L27.2904136,30.537871 L25.4681784,33.4704194 L30.7934165,33.4704194 L32.6163253,36.4036452 L36.0566783,36.4036452 L26.9428079,21.7354839 L19.6498253,33.4704194 Z M22.741899,24.6693871 L10.7393985,24.6693871 L12.562981,21.7354839 L24.5641342,21.7354839 L22.741899,24.6693871 Z M20.819963,49.0212581 C31.275753,49.0212581 39.7509991,40.4986452 39.7509991,29.9837419 C39.7509991,19.4701935 31.275753,10.9462258 20.819963,10.9462258 C10.364173,10.9462258 1.88825329,19.4701935 1.88825329,29.9837419 C1.88825329,40.4986452 10.364173,49.0212581 20.819963,49.0212581 L20.819963,49.0212581 Z M20.8826129,9 C32.4169236,9 41.766573,18.4019032 41.766573,30.0006774 C41.766573,41.5994516 32.4169236,51 20.8826129,51 C9.34964947,51 0,41.5994516 0,30.0006774 C0,18.4019032 9.34964947,9 20.8826129,9 L20.8826129,9 Z M74.5324496,42.780871 C74.5641113,42.780871 74.5856683,42.7571613 74.5957731,42.7226129 C74.5957731,42.7226129 78.2442854,30.680129 78.2442854,30.6679355 C78.2442854,30.6347419 78.2234021,30.5988387 78.192414,30.596129 L73.6991391,30.596129 C73.6755612,30.596129 73.6607408,30.6150968 73.6566989,30.6394839 C73.6566989,30.6401613 72.7284031,33.7711935 72.7263821,33.7725484 C72.7196456,33.7989677 72.7075198,33.8152258 72.6839419,33.8152258 C72.662385,33.8152258 72.642849,33.792871 72.6401544,33.771871 L71.6660501,30.6360968 C71.6620082,30.6164516 71.6471878,30.596129 71.6236099,30.596129 L66.6594506,30.596129 C66.6453038,30.5988387 66.635199,30.6103548 66.6271152,30.6245806 C66.6271152,30.6245806 65.7547327,33.7711935 65.7533854,33.7711935 C65.7493435,33.7989677 65.7351967,33.813871 65.7116188,33.813871 C65.6900619,33.813871 65.6738942,33.7989677 65.6705259,33.7779677 L64.7449248,30.6340645 C64.7435774,30.6144194 64.7274097,30.5981613 64.7098947,30.5954516 L59.91617,30.596129 C59.8764244,30.596129 59.844089,30.6272903 59.844089,30.6672581 C59.844089,30.6747097 59.8474572,30.6882581 59.8474572,30.6882581 C59.8474572,30.6882581 63.5464936,42.7185484 63.5464936,42.7239677 C63.5579457,42.7585161 63.5795026,42.7815484 63.611838,42.7815484 L67.5911146,42.7815484 C67.6153662,42.7795161 67.6389441,42.7503871 67.6470279,42.7239677 C67.6470279,42.7226129 69.0313877,38.2455484 69.0313877,38.2455484 L69.0313877,38.2441935 C69.0414925,38.2170968 69.0489027,38.2015161 69.0724806,38.2015161 C69.0960586,38.2015161 69.1102053,38.2198065 69.1169418,38.2435161 L70.4682926,42.7422581 C70.4750291,42.7639355 70.4965861,42.7815484 70.5215113,42.7815484 C70.5248795,42.7815484 74.5324496,42.780871 74.5324496,42.780871 L74.5324496,42.780871 Z M99.963577,34.8394839 C99.963577,34.1837419 99.3916444,34.0421613 99.1114042,34.0421613 L96.6855747,34.0421613 C96.6855747,34.0421613 96.6148409,34.0624839 96.6148409,34.1437742 L96.6175356,35.4857419 C96.6175356,35.5663548 96.6882693,35.5853226 96.6882693,35.5853226 L99.3323628,35.5839677 C99.3323628,35.5839677 99.963577,35.4945484 99.963577,34.8394839 L99.963577,34.8394839 Z M111.931047,34.6633548 C111.931047,34.6992581 111.947889,34.7317742 111.974161,34.7534516 C112.188383,34.9803871 113.224464,36.0811935 113.484495,36.3982258 C113.776187,36.7504839 114.456578,37.5193548 114.456578,39.0205161 C114.456578,40.5216774 113.654255,41.4287419 113.414434,41.6712581 C113.17394,41.9137742 112.291453,42.7795161 110.707691,42.7795161 L101.426081,42.780871 C101.426081,42.780871 99.9824393,42.7503871 99.1114042,41.8636452 L96.6552602,39.3849677 C96.6552602,39.3849677 96.5656642,39.3233226 96.5656642,39.3849677 L96.5656642,42.780871 L91.850757,42.780871 C91.8130324,42.780871 91.7780023,42.7503871 91.7793496,42.7117742 C91.776655,42.7090645 91.7780023,30.5981613 91.7780023,30.5981613 L100.244491,30.5981613 C100.244491,30.5981613 101.766276,30.6279677 102.970097,31.6759355 C104.17257,32.7245806 104.272944,33.9215806 104.272944,34.5969677 C104.272944,35.2723548 104.132824,36.5323548 102.960665,37.4495806 C102.960665,37.4495806 102.407595,37.8824516 102.136786,38.013871 C102.136786,38.013871 102.04719,38.0606129 102.04719,38.1337742 C102.04719,38.1757742 102.098388,38.4636774 102.818524,38.4677419 L108.752746,38.4663871 C108.834932,38.4663871 108.90095,38.4013548 108.90095,38.3187097 C108.90095,38.2807742 108.88613,38.2469032 108.861878,38.2211613 C108.861878,38.2211613 107.80222,37.1264516 107.379838,36.6028065 C107.379838,36.6028065 106.55798,35.544 106.55798,34.1837419 C106.55798,32.8228065 107.401395,31.835129 107.982085,31.4015806 C108.563449,30.9680323 109.574604,30.5954516 110.296762,30.5954516 L118,30.5954516 L118,34.5468387 L112.009865,34.5468387 C111.960688,34.5603871 111.931047,34.6105161 111.931047,34.6633548 L111.931047,34.6633548 Z M84.7814277,37.5667742 C84.7814277,37.5417097 83.8362906,34.4851935 83.8362906,34.4851935 C83.8026078,34.3686774 83.8012605,34.3659677 83.7864401,34.3659677 C83.7743144,34.3659677 83.7702724,34.3686774 83.7365897,34.4851935 C83.7365897,34.4851935 82.7914526,37.5417097 82.7914526,37.5660968 C82.7914526,37.6338387 82.8379347,37.7042903 82.8999109,37.7042903 L84.673643,37.7042903 C84.7309036,37.7042903 84.7814277,37.6338387 84.7814277,37.5667742 L84.7814277,37.5667742 Z M90.7493321,42.6772258 C90.7493321,42.7368387 90.7001553,42.7815484 90.642221,42.7815484 L86.4083031,42.7815484 C86.373273,42.7713871 86.3490215,42.7368387 86.340264,42.7009355 L85.827613,41.088 C85.810098,41.0500645 85.7743943,41.0195806 85.7299331,41.016871 L81.7607613,41.0195806 C81.7163002,41.0216129 81.6792492,41.0500645 81.6630815,41.088 L81.1618826,42.7009355 C81.1531251,42.7368387 81.1288735,42.7693548 81.0938435,42.780871 L76.7898655,42.7815484 C76.7319312,42.7815484 76.6841018,42.7334516 76.6841018,42.6745161 C76.6841018,42.6521613 80.2807426,30.705871 80.2807426,30.705871 C80.2989313,30.6469355 80.3528236,30.6029032 80.4181681,30.596129 L86.927017,30.596129 C86.9916878,30.600871 87.0469275,30.6469355 87.0637688,30.7079032 C87.0637688,30.7079032 90.7493321,42.6562258 90.7493321,42.6772258 L90.7493321,42.6772258 Z M94.3277842,24.3462581 C94.3277842,24.3211935 93.3846681,21.264 93.3846681,21.264 C93.351659,21.1488387 93.3402069,21.1454516 93.334144,21.1454516 L93.3327967,21.1454516 C93.3280811,21.1454516 93.316629,21.1488387 93.2836199,21.264 C93.2836199,21.264 92.3405038,24.3211935 92.3405038,24.3462581 C92.3405038,24.4133226 92.3815967,24.4844516 92.4476148,24.4844516 L94.2199995,24.4844516 C94.285344,24.4844516 94.3277842,24.4133226 94.3277842,24.3462581 L94.3277842,24.3462581 Z M100.297036,29.4560323 C100.297036,29.5163226 100.249206,29.5610323 100.190599,29.5610323 C100.18723,29.5610323 95.9560069,29.5623871 95.9560069,29.5623871 C95.9216506,29.5501935 95.8967254,29.5163226 95.8866205,29.4797419 L95.3746432,27.8688387 C95.3578018,27.8302258 95.3220981,27.8024516 95.2769633,27.7997419 L91.3091389,27.7997419 C91.2653513,27.8024516 91.2262794,27.828871 91.209438,27.8674839 L90.7095864,29.4797419 C90.7015026,29.5163226 90.6752301,29.5501935 90.6408737,29.5623871 L86.338243,29.5610323 C86.2789614,29.5610323 86.2297847,29.5149677 86.2297847,29.4533226 C86.2297847,29.4309677 89.8264255,17.4819677 89.8264255,17.4819677 C89.8432669,17.421 89.8958119,17.379 89.9618301,17.3756129 L96.4706789,17.3756129 C96.5353497,17.379 96.5885684,17.4223548 96.6067571,17.4826452 C96.6067571,17.4826452 100.297036,29.4363871 100.297036,29.4560323 L100.297036,29.4560323 Z M109.280217,21.6189677 C109.280217,20.9652581 108.711653,20.823 108.428045,20.823 L106.003562,20.823 C106.003562,20.823 105.932155,20.8433226 105.932155,20.9252903 L105.936197,22.2652258 C105.936197,22.3471935 106.006257,22.3668387 106.006257,22.3668387 L108.650351,22.3648065 C108.650351,22.3648065 109.280217,22.2747097 109.280217,21.6189677 L109.280217,21.6189677 Z M117.991242,25.2485806 L117.991242,29.5610323 L110.744068,29.5610323 C110.744068,29.5610323 109.300427,29.5312258 108.428045,28.6451613 L105.973922,26.165129 C105.973922,26.165129 105.882305,26.1041613 105.882305,26.165129 L105.882305,29.5610323 C105.882305,29.5610323 101.176155,29.5623871 101.169418,29.5623871 C101.129673,29.5623871 101.09599,29.5312258 101.09599,29.4919355 L101.09599,17.3756129 L109.561131,17.3756129 C109.561131,17.3756129 111.085611,17.4094839 112.288084,18.458129 C113.490557,19.5060968 113.590932,20.7024194 113.590932,21.377129 C113.590932,22.0531935 113.450138,23.313871 112.277306,24.2304194 C112.277306,24.2304194 111.726257,24.6639677 111.456795,24.7940323 C111.456795,24.7940323 111.365178,24.8414516 111.365178,24.9166452 C111.365178,24.9552581 111.415028,25.2445161 112.137186,25.2485806 L117.991242,25.2485806 Z M87.9220045,17.3756129 L87.9220045,21.348 L82.6904044,21.348 L82.6904044,29.5610323 L78.3803635,29.5610323 L78.3803635,21.327 L72.7755589,21.327 C72.7277294,21.3412258 72.6967413,21.3913548 72.6967413,21.4441935 C72.6967413,21.4800968 72.712909,21.5119355 72.7385079,21.5336129 C72.95273,21.7612258 73.9901578,22.8566129 74.2488411,23.1729677 C74.5405334,23.5245484 75.2222717,24.300871 75.2222717,25.8027097 C75.2222717,27.303871 74.4199493,28.2109355 74.1801283,28.4534516 C73.9389601,28.6959677 73.0578201,29.5610323 71.4733849,29.5610323 L59.8366788,29.5610323 L59.8366788,25.2553548 L69.5191135,25.2553548 C69.6006257,25.2553548 69.6673175,25.1889677 69.6673175,25.1076774 C69.6673175,25.0697419 69.6518234,25.0351935 69.6282455,25.0087742 C69.6282455,25.0087742 68.5658925,23.9072903 68.1462058,23.3843226 C68.1462058,23.3843226 67.3223265,22.3255161 67.3223265,20.9652581 C67.3223265,19.6036452 68.1670891,18.6159677 68.7464319,18.1824194 C69.3277957,17.7495484 70.3402982,17.3756129 71.0631294,17.3756129 L87.9220045,17.3756129 Z"/>
</svg>
