<?xml version="1.0" encoding="UTF-8"?>
<svg width="130px" height="36px" viewBox="0 0 130 36" version="1.1" xmlns="http://www.w3.org/2000/svg" xmlns:xlink="http://www.w3.org/1999/xlink">
    <!-- Generator: Sketch 56.2 (81672) - https://sketch.com -->
    <title>nfsh-nav-logo-light</title>
    <desc>Created with Sketch.</desc>
    <g id="nfsh-nav-logo-light" stroke="none" stroke-width="1" fill="none" fill-rule="evenodd">
        <g id="Group-5" fill="#FFFFFF">
            <polygon id="Fill-1" points="42.4571946 0 31.2843957 22.15669 29.0498359 0 17.8770369 0 0 35.4495962 11.1733576 35.4495962 22.3461565 13.294014 24.5807163 35.450704 35.7535153 35.4495962 53.6305522 0"></polygon>
            <polygon id="Fill-2" points="57.7386434 0 39.9956661 35.450704 51.084819 35.450704 57.7386434 22.1568285 68.8289053 22.1568285 79.9186127 13.2944295 62.1745264 13.2944295 64.3930223 8.86295297 84.3544957 8.86295297 95.4442031 0"></polygon>
            <path d="M111.148103,13.2944295 L95.6494594,13.2944295 L97.8779569,8.86295297 L117.934435,8.86295297 L129.076922,0 L101.220703,0 L84.5064147,13.2949834 L84.0813288,14.1402875 C82.2294474,17.8233984 84.9231437,22.1568285 89.0642493,22.1568285 L104.56345,22.1568285 L102.334952,26.588305 L71.1359867,26.588305 L59.9934991,35.450704 L102.13383,35.450704 C106.354604,35.450704 110.212691,33.080418 112.100228,29.3269574 L116.131023,21.3115243 C117.983462,17.6278595 115.289765,13.2944295 111.148103,13.2944295" id="Fill-3"></path>
        </g>
    </g>
</svg>